<?xml version="1.0" encoding="utf-8"?>
<!-- Generator: Adobe Illustrator 23.0.3, SVG Export Plug-In . SVG Version: 6.00 Build 0)  -->
<svg version="1.1" id="Calque_1" xmlns="http://www.w3.org/2000/svg" xmlns:xlink="http://www.w3.org/1999/xlink" x="0px" y="0px"
	 viewBox="0 0 500 500" style="enable-background:new 0 0 500 500;" xml:space="preserve">
<style type="text/css">
	.st0{display:none;}
	.st1{display:inline;fill:#F70FCE;stroke:#3EDFFE;stroke-width:18;stroke-miterlimit:10;}
	.st2{display:inline;fill:none;stroke:#3EDFFE;stroke-width:18;stroke-miterlimit:10;}
	.st3{display:inline;fill:none;}
	.st4{display:inline;fill:none;stroke:#F70FCE;stroke-width:18;stroke-miterlimit:10;}
	.st5{fill:none;stroke:#3EDFFE;stroke-width:32;stroke-miterlimit:10;}
	.st6{fill:#F70FCE;stroke:#3EDFFE;stroke-width:31;stroke-miterlimit:10;}
	.st7{fill:none;}
</style>
<g class="st0">
	<polygon class="st1" points="231,400.5 142.5,312 90.5,312.5 90.5,258.5 142.5,258.5 231,170 	"/>
	<path class="st2" d="M255,217c0,0,66-7.26,66,62c0,70-66,67-66,67"/>
	<path class="st2" d="M255,182.34c0,0,110-11.17,110,95.37c0,107.68-110,103.06-110,103.06"/>
	<path class="st3" d="M250,89"/>
	<line class="st4" x1="76" y1="124" x2="418" y2="466"/>
	<line class="st4" x1="407" y1="120" x2="65" y2="462"/>
</g>
<g>
	<path class="st5" d="M220.73,130.14c-57.96,15.86-100.3,65.94-100.3,125.27c0,72.08,62.49,130.51,139.56,130.51
		s139.56-58.43,139.56-130.51c0-41.49-27.16-98.07-72.42-110.89"/>
	<polygon class="st6" points="261.89,131.09 305.86,205.86 332.44,109 	"/>
	<rect x="148.16" y="242.02" class="st7" width="224.24" height="57.39"/>
</g>
</svg>
